# xmcd
#
# Track frame offsets:
#	150
#	39903
#	60174
#	87262
#	104888
#	126369
#	145538
#	166538
#	197445
#	221042
#	241822
#	261543
#	282608
#	306208
#
# Disc length: 4337 seconds
#
# Revision: 3
# Processed by: cddbd v1.5.1PL0 Copyright (c) Steve Scherf et al.
# Submitted via: EasyCDDAExtractor 8.2.1.1
#
DISCID=c710ef0e
DTITLE=Teach Yourself - Spanish - All Round Confidence CD2
DYEAR=2003
DGENRE=Speech
TTITLE0=Unit 12: I Like It.
TTITLE1=Unit 13: What Are You Going To Do?
TTITLE2=Unit 14: Hello?
TTITLE3=Unit 15: It Was A Great Journey.
TTITLE4=Unit 16: Where Were You Born?
TTITLE5=Unit 17: It Was Very Small.
TTITLE6=Unit 18: What Were You Doing There?
TTITLE7=Unit 19: It Was A Mistake.
TTITLE8=Unit 20: We'll Go To The Beach.
TTITLE9=Unit 21: I'd Love To.
TTITLE10=Unit 22: Shall I Give You Some More?
TTITLE11=Unit 23: Go Straight On.
TTITLE12=Unit 24: I Have A Headache.
TTITLE13=Unit 25: What Kind Of Person Are You Looking For?
EXTD=YEAR: 2000
EXTT0=
EXTT1=
EXTT2=
EXTT3=
EXTT4=
EXTT5=
EXTT6=
EXTT7=
EXTT8=
EXTT9=
EXTT10=
EXTT11=
EXTT12=
EXTT13=
PLAYORDER=
